<svg xmlns="http://www.w3.org/2000/svg" viewBox="0 0 54 54"><defs><style>.cls-1{fill:#231f20;}</style></defs><title>Asset 1</title><g id="Layer_2" data-name="Layer 2"><g id="Layer_1-2" data-name="Layer 1"><path class="cls-1" d="M50,0H4A3.94,3.94,0,0,0,0,3.89V50.1A3.94,3.94,0,0,0,4,54H50a4,4,0,0,0,4-3.9V3.89A4,4,0,0,0,50,0ZM16,46H8V20.25h8ZM12,16.72a4.64,4.64,0,1,1,4.64-4.65A4.64,4.64,0,0,1,12,16.72ZM46,46H38V33.48c0-3-.06-6.83-4.16-6.83S29,29.91,29,33.27V46H21V20.25h7.68v3.52h.11a8.42,8.42,0,0,1,7.58-4.16c8.1,0,9.6,5.34,9.6,12.28Z"/></g></g></svg>